<?xml version="1.0" standalone="no"?>
<!DOCTYPE svg PUBLIC "-//W3C//DTD SVG 20010904//EN"
 "http://www.w3.org/TR/2001/REC-SVG-20010904/DTD/svg10.dtd">
<svg version="1.0" xmlns="http://www.w3.org/2000/svg"
 width="400.000000pt" height="400.000000pt" viewBox="0 0 400.000000 400.000000"
 preserveAspectRatio="xMidYMid meet">
<metadata>
Created by potrace 1.11, written by Peter Selinger 2001-2013
</metadata>
<g transform="translate(0.000000,400.000000) scale(0.100000,-0.100000)"
fill="#000000" stroke="none">
<path d="M2690 3926 c0 -8 -5 -27 -12 -43 -6 -15 -11 -31 -10 -35 1 -5 -2 -8
-8 -8 -5 0 -7 -7 -4 -15 4 -8 1 -15 -5 -15 -6 0 -11 -6 -11 -13 0 -6 -11 -33
-25 -60 -14 -26 -22 -47 -18 -47 5 0 3 -4 -3 -8 -6 -4 -17 -19 -25 -33 -47
-87 -62 -115 -69 -119 -4 -3 -13 -16 -20 -30 -15 -28 -140 -198 -162 -220 -8
-9 -17 -20 -19 -26 -5 -13 -64 -87 -96 -121 -12 -13 -20 -23 -17 -23 3 0 -1
-6 -8 -14 -7 -8 -26 -31 -43 -51 -16 -21 -35 -43 -40 -49 -50 -53 -215 -288
-215 -306 0 -7 -3 -10 -6 -7 -7 7 -41 -49 -76 -125 -12 -27 -25 -48 -29 -48
-4 0 -10 -13 -14 -29 -7 -32 -1 -45 60 -132 22 -31 47 -67 55 -79 8 -12 20
-28 25 -34 6 -7 15 -19 20 -28 6 -9 38 -57 73 -106 34 -50 62 -95 62 -100 0
-6 4 -12 8 -14 13 -5 108 -208 117 -248 2 -8 10 -35 18 -60 17 -53 40 -154 42
-190 2 -14 3 -25 5 -25 1 0 3 -13 5 -30 1 -16 3 -32 4 -35 5 -20 272 556 334
720 20 52 41 109 48 125 7 17 11 34 10 39 -1 4 2 13 7 20 5 6 17 40 27 76 11
36 22 67 25 70 3 3 6 11 8 19 15 68 38 151 43 151 12 0 -9 -291 -28 -375 -2
-11 -6 -33 -8 -50 -6 -39 -10 -56 -30 -140 -9 -38 -19 -80 -21 -92 -2 -12 -9
-34 -14 -48 -5 -14 -9 -29 -8 -33 1 -4 -3 -17 -10 -29 -7 -13 -10 -23 -7 -23
2 0 -5 -24 -16 -52 -11 -29 -20 -54 -20 -55 1 -6 -42 -132 -62 -183 -6 -14
-11 -27 -12 -30 -1 -3 -7 -18 -14 -35 -7 -16 -24 -59 -38 -95 -14 -36 -36 -87
-48 -115 -20 -45 -35 -81 -40 -95 -1 -3 -9 -22 -18 -42 -10 -21 -17 -42 -17
-48 0 -5 -5 -10 -10 -10 -6 0 -9 -3 -8 -7 3 -9 -60 -163 -73 -179 -5 -6 -6
-14 -2 -17 3 -4 2 -7 -4 -7 -5 0 -10 -6 -10 -12 0 -7 -9 -33 -20 -58 -27 -61
-64 -155 -67 -171 -2 -8 -9 -27 -16 -44 -7 -16 -14 -34 -16 -40 -24 -81 -35
-129 -40 -170 -3 -27 -8 -57 -11 -65 -5 -14 -8 -46 -12 -129 -1 -25 -5 -32
-16 -27 -8 3 -15 1 -15 -3 0 -5 -15 -5 -34 -1 -18 4 -40 3 -49 -1 -10 -6 -18
-5 -23 2 -4 8 -9 8 -13 1 -15 -24 -34 7 -35 57 0 28 -4 51 -8 51 -4 0 -5 6 -3
13 2 6 6 50 9 97 3 47 10 100 15 118 5 18 10 33 9 35 -2 18 17 77 25 77 6 0 8
3 4 6 -6 6 10 54 43 129 10 22 30 74 46 115 16 41 31 77 34 80 3 3 6 14 8 25
3 22 9 49 12 53 3 3 5 10 15 67 4 28 10 57 12 65 5 24 5 182 -1 226 -16 128
-50 235 -130 404 -45 97 -178 311 -198 318 -4 2 -8 8 -8 13 0 5 -23 40 -52 77
-97 125 -193 246 -208 263 -8 9 -26 32 -40 50 -14 18 -33 41 -42 51 -10 10
-18 22 -18 27 0 5 -4 11 -8 13 -4 2 -23 23 -42 48 -19 25 -37 47 -41 50 -3 3
-21 28 -40 55 -18 28 -36 52 -39 55 -17 15 -109 160 -103 160 5 0 3 4 -3 8 -6
4 -21 27 -34 52 l-23 44 -24 -29 c-38 -47 -103 -143 -103 -153 0 -5 -7 -15
-15 -22 -8 -7 -15 -21 -15 -31 0 -11 -4 -19 -9 -19 -10 0 -83 -182 -106 -265
-9 -33 -19 -67 -22 -75 -3 -8 -7 -19 -7 -25 -1 -5 -7 -42 -15 -82 -7 -39 -13
-77 -15 -85 -1 -7 -5 -19 -9 -25 -5 -8 -3 -13 3 -13 6 0 8 -5 5 -11 -24 -38
-24 -456 -1 -560 3 -13 8 -44 11 -69 7 -52 8 -55 26 -138 7 -34 15 -62 19 -62
3 0 6 -10 7 -23 4 -36 9 -56 16 -63 4 -4 7 -13 7 -19 0 -7 8 -30 17 -51 9 -22
17 -44 19 -50 1 -5 11 -30 23 -54 11 -24 21 -49 21 -56 0 -7 3 -14 8 -16 4 -1
18 -23 31 -48 34 -64 104 -169 138 -207 66 -73 82 -90 119 -124 48 -43 142
-108 204 -139 25 -12 53 -26 62 -31 27 -13 51 -11 41 4 -4 6 -8 14 -9 17 0 3
-4 14 -8 25 -4 11 -15 43 -25 70 -60 165 -85 231 -92 240 -4 6 -9 19 -11 30
-1 11 -6 22 -9 25 -5 5 -82 206 -85 225 -1 6 -9 26 -18 46 -8 20 -12 39 -9 43
4 3 1 6 -5 6 -7 0 -12 13 -12 29 0 17 -4 32 -9 35 -5 3 -11 18 -14 33 -3 16
-7 37 -10 48 -21 77 -47 185 -51 210 -2 17 -5 30 -6 30 -1 0 -4 11 -5 25 -2
14 -6 39 -9 55 -3 17 -8 59 -11 95 -4 36 -9 72 -12 80 -10 28 -9 91 2 97 5 4
7 3 3 -1 -3 -4 0 -27 9 -49 8 -23 16 -46 17 -52 2 -5 5 -17 8 -25 17 -45 107
-308 113 -327 3 -13 10 -23 15 -23 5 0 7 -9 5 -20 -2 -11 0 -20 4 -20 4 0 14
-23 21 -50 7 -28 17 -50 22 -50 4 0 8 -8 8 -18 0 -10 9 -37 20 -60 11 -22 20
-47 20 -55 0 -7 4 -17 8 -23 5 -5 21 -40 37 -79 15 -38 35 -86 44 -105 9 -19
16 -37 17 -40 10 -35 18 -50 26 -50 5 0 6 -4 3 -10 -3 -5 -3 -16 2 -22 4 -7 8
-15 9 -18 0 -3 6 -18 13 -35 7 -16 15 -42 18 -57 3 -16 9 -28 13 -28 4 0 11
-17 15 -37 4 -21 10 -42 13 -48 4 -5 7 -14 9 -20 3 -14 12 -52 18 -72 26 -98
38 -159 39 -200 0 -13 3 -23 6 -23 3 0 6 -10 7 -22 0 -13 3 -62 7 -110 l8 -86
-35 8 c-19 4 -41 4 -48 -1 -7 -4 -19 -3 -26 3 -9 7 -13 7 -13 0 0 -6 -13 -7
-34 -2 -19 4 -40 4 -47 -1 -7 -4 -19 -3 -26 3 -9 7 -13 7 -13 0 0 -6 -13 -7
-34 -2 -19 4 -40 4 -47 -1 -7 -4 -19 -3 -26 3 -9 7 -13 7 -13 -2 0 -9 -4 -9
-13 -2 -8 7 -18 7 -27 2 -9 -5 -19 -5 -27 2 -9 7 -13 7 -13 0 0 -6 -13 -7 -34
-2 -19 4 -40 4 -47 -1 -7 -4 -19 -3 -26 3 -9 7 -13 7 -13 0 0 -6 -13 -7 -34
-2 -19 4 -40 4 -47 -1 -7 -4 -19 -3 -26 3 -9 7 -13 7 -13 -1 0 -7 -4 -10 -8
-7 -5 3 -45 7 -90 10 -46 3 -98 12 -116 20 -19 8 -37 12 -39 9 -3 -2 -17 3
-32 13 -15 10 -40 25 -57 34 -137 73 -249 254 -252 407 -1 24 -5 43 -11 43 -7
0 -7 3 0 8 12 8 14 132 2 132 -5 0 -5 4 -2 10 11 17 11 90 0 90 -7 0 -7 3 0 8
12 8 14 132 2 132 -5 0 -6 4 -2 10 8 13 13 110 5 110 -4 0 -6 10 -4 22 1 13 3
23 4 23 1 0 3 8 5 18 2 9 0 17 -5 17 -4 0 -4 17 1 37 4 21 5 40 1 43 -6 4 -8
27 -2 40 7 19 7 40 0 40 -5 0 -5 14 0 30 6 21 5 30 -3 30 -8 0 -8 3 -2 8 12 8
14 132 2 132 -5 0 -5 4 -2 10 11 17 11 90 0 90 -7 0 -7 3 0 8 6 4 10 21 10 37
0 17 -4 33 -10 37 -7 5 -7 8 0 8 6 0 10 28 10 65 0 36 -4 65 -8 65 -5 0 -5 4
-2 10 11 17 11 90 0 90 -7 0 -7 3 0 8 11 8 16 92 5 92 -4 0 -6 10 -4 23 1 12
3 22 4 22 1 0 3 8 5 18 2 9 0 17 -5 17 -4 0 -4 17 1 37 4 21 5 40 1 43 -6 4
-8 27 -2 40 7 18 7 40 0 40 -4 0 -6 8 -4 18 9 41 10 102 2 102 -5 0 -6 4 -3
10 11 17 11 90 0 90 -7 0 -7 3 0 8 12 8 14 132 2 132 -5 0 -5 4 -2 10 11 17
11 90 0 90 -7 0 -7 3 0 8 6 4 10 23 10 42 -1 36 11 104 22 130 3 8 7 20 9 27
6 31 72 131 113 173 62 63 154 123 206 135 6 2 30 9 55 16 35 10 200 13 716
14 576 1 673 3 685 15 24 25 79 97 79 104 0 8 -1510 2 -1535 -6 -11 -4 -34
-11 -51 -16 -49 -15 -134 -56 -134 -64 0 -5 -7 -8 -16 -8 -8 0 -50 -35 -93
-78 -58 -58 -88 -98 -115 -153 -75 -153 -72 -102 -70 -1429 1 -652 4 -1196 7
-1210 5 -24 15 -64 21 -85 2 -5 8 -23 15 -40 6 -16 14 -36 16 -43 9 -25 74
-117 107 -152 69 -73 206 -159 258 -163 11 -1 20 -6 20 -11 0 -5 2 -7 5 -4 3
3 33 0 68 -6 71 -13 2380 -15 2456 -2 81 14 251 87 251 108 0 4 6 8 13 8 10 0
103 92 132 131 43 58 85 156 102 239 5 21 15 220 14 258 0 6 0 41 0 77 0 36 0
72 0 80 0 8 0 44 0 80 0 36 0 72 0 80 0 8 0 44 0 80 0 36 0 72 0 80 0 8 0 44
0 80 0 36 0 72 0 80 0 16 0 212 0 243 0 14 0 172 0 210 0 33 0 254 0 270 0 14
0 164 0 210 0 6 0 66 0 132 0 66 0 126 0 133 2 45 -10 386 -13 402 -18 84 -64
189 -111 249 -86 111 -196 187 -322 223 -28 8 -109 23 -111 20 -1 -1 5 -25 15
-52 10 -28 19 -54 21 -60 7 -27 13 -35 24 -35 20 0 130 -57 153 -79 12 -11 25
-21 28 -21 9 0 63 -60 94 -105 31 -45 74 -125 67 -125 -3 0 2 -19 11 -42 14
-38 16 -167 17 -1178 1 -1022 -1 -1196 -17 -1265 -11 -44 -43 -113 -75 -160
-37 -54 -92 -114 -105 -115 -4 0 -18 -9 -30 -20 -53 -50 -188 -96 -279 -95
-27 0 -48 -3 -48 -6 0 -4 -15 -3 -34 1 -19 4 -40 4 -47 -1 -7 -4 -19 -3 -26 3
-9 7 -13 7 -13 0 0 -6 -13 -7 -34 -2 -19 4 -40 4 -47 -1 -7 -4 -19 -3 -26 3
-9 7 -13 7 -13 0 0 -6 -13 -7 -34 -2 -19 4 -40 4 -47 -1 -7 -4 -19 -3 -26 3
-9 7 -13 7 -13 0 0 -6 -13 -7 -34 -2 -19 4 -40 4 -47 -1 -7 -4 -19 -3 -26 3
-9 7 -13 7 -13 -2 0 -9 -4 -9 -13 -2 -8 7 -18 7 -27 2 -9 -5 -19 -5 -27 2 -9
7 -13 7 -13 0 0 -6 -13 -7 -34 -2 -19 4 -40 4 -47 -1 -7 -4 -19 -3 -26 3 -9 7
-13 7 -13 -1 0 -7 -4 -10 -10 -6 -5 3 -25 6 -44 7 -35 1 -35 2 -30 37 3 20 10
54 16 76 6 22 11 45 12 50 6 25 51 115 58 115 4 0 8 6 8 14 0 13 161 182 201
212 19 14 145 121 188 159 69 61 116 113 166 180 17 22 33 42 36 45 23 20 141
238 138 256 0 4 3 10 8 13 20 13 113 281 113 325 0 9 3 16 8 16 4 0 7 10 8 23
0 20 3 36 19 121 4 16 8 33 11 38 3 4 0 8 -6 8 -6 0 -8 5 -3 13 28 44 33 434
9 615 -3 20 -8 57 -11 82 -3 25 -8 59 -12 75 -3 17 -7 39 -9 50 -5 39 -26 140
-31 155 -3 8 -8 24 -10 35 -3 11 -6 25 -7 30 -2 6 -6 24 -10 40 -4 17 -10 37
-12 45 -3 8 -6 17 -6 20 0 3 -5 16 -10 30 -5 14 -11 32 -13 40 -2 8 -20 60
-40 115 -20 55 -37 106 -37 113 -1 6 -5 12 -9 12 -4 0 -10 11 -13 25 -4 14
-19 51 -33 83 -15 31 -28 59 -28 62 -3 12 -51 105 -56 110 -4 3 -9 15 -13 28
-4 12 -12 22 -17 22 -5 0 -9 7 -9 17 0 9 -11 31 -25 49 -14 18 -25 36 -25 39
0 4 -13 27 -30 52 -16 24 -30 48 -30 53 0 4 -3 10 -7 12 -5 2 -21 22 -37 46
-28 42 -56 55 -56 28z"/>
</g>
</svg>
