<?xml version="1.0" encoding="UTF-8"?>
<svg width="488px" height="248px" viewBox="0 0 488 248" version="1.1" xmlns="http://www.w3.org/2000/svg" xmlns:xlink="http://www.w3.org/1999/xlink">
    <!-- Generator: Sketch 61.2 (89653) - https://sketch.com -->
    <title>Group</title>
    <desc>Created with Sketch.</desc>
    <g id="Page-1" stroke="none" stroke-width="1" fill="none" fill-rule="evenodd">
        <g id="Artboard" transform="translate(-396.000000, -276.000000)" fill="#37B028" fill-rule="nonzero">
            <g id="Group" transform="translate(396.000000, 276.000000)">
                <path d="M439.663484,0.356509257 C419.946312,0.90503332 382.702766,3.09912957 365.99794,14.3438729 C349.566963,25.5886161 345.18537,38.7531936 348.471565,51.6435091 C356.413204,47.5295786 374.761127,38.7531936 393.109051,37.3818835 C377.225774,45.6097444 348.471565,63.7110385 323.003551,97.4452683 C309.037221,68.373493 285.486155,50.820723 270.424427,42.044338 C289.593899,45.3354824 307.667973,57.1287497 315.335762,62.3397283 C319.991206,49.9979369 317.526559,36.2848354 302.464831,23.1202579 C287.676952,9.95568035 250.707255,3.09912957 231.263933,0.0822472261 C225.239242,-0.740538868 220.309949,4.74470176 221.953046,10.5042044 C227.430039,29.4282846 239.205572,65.0823486 253.99345,78.2469261 C269.602878,91.9600277 283.843058,92.2342897 295.89244,85.1034769 C305.751026,97.4452683 313.966514,113.626728 316.97886,133.922118 L333.409837,133.922118 C332.588288,127.614092 331.492889,121.580327 329.849792,115.820824 C341.077626,99.6393646 353.127008,86.7490491 364.628692,76.875616 C375.582676,85.652001 390.096705,87.0233111 407.075381,75.5043058 C423.506357,64.2595625 439.663484,30.5253327 447.331273,12.4240386 C449.79592,6.39027395 445.688175,0.356509257 439.663484,0.356509257 Z" id="Path"></path>
                <path d="M20.8019827,211.35982 L20.8019827,169.965729 L45.1793061,169.965729 C71.6693309,169.965729 85.8081784,154.972594 85.8081784,132.808829 C85.8081784,110.645064 71.6693309,95.8148974 45.1793061,95.8148974 L8.47488006e-13,95.8148974 L8.47488006e-13,211.35982 L20.8019827,211.35982 Z M44.3667286,151.550248 L20.8019827,151.550248 L20.8019827,114.230379 L44.3667286,114.230379 C58.3430607,114.230379 64.6811648,121.889915 64.6811648,132.971798 C64.6811648,144.05368 58.3430607,151.550248 44.3667286,151.550248 Z M117.086741,212.337633 C121.149628,212.337633 121.962206,212.011695 126.025093,211.196851 L126.025093,194.08512 C124.887485,194.08512 124.399938,194.248089 122.612268,194.248089 C115.624102,194.248089 114.486493,190.988712 114.486493,186.099646 L114.486493,93.5333333 L94.0095415,93.5333333 L94.0095415,189.521992 C94.0095415,205.655909 103.272924,212.337633 117.086741,212.337633 Z M161.041512,213.478415 C173.067658,213.478415 182.818587,207.611536 186.718959,200.766844 C187.369021,207.122629 192.244486,212.66357 201.020322,212.66357 C205.895787,212.66357 207.683457,211.848726 211.096283,210.382006 L211.096283,195.388871 C211.096283,195.388871 209.796159,195.714809 208.496035,195.714809 C205.083209,195.714809 203.783086,194.248089 203.783086,190.336837 L203.783086,158.883846 C203.783086,153.179936 203.458055,147.150088 201.345353,141.772116 C196.469888,129.060545 184.118711,124.497417 169.654833,124.497417 C150.803036,124.497417 135.689095,132.971798 134.551487,152.039154 L154.215861,152.039154 C154.703408,144.216649 160.228934,139.979459 169.654833,139.979459 C181.193432,139.979459 183.956196,145.357431 183.956196,153.342905 L183.956196,158.557909 L159.091326,160.350566 C143.002292,161.491348 130.4886,170.780573 130.4886,186.91449 C130.4886,200.766844 140.889591,213.478415 161.041512,213.478415 Z M162.341636,197.01856 C156.003532,197.01856 150.315489,192.944338 150.315489,186.425584 C150.315489,179.580892 156.328563,175.832608 162.504151,175.343701 L183.956196,173.714013 L183.956196,177.625265 C183.956196,190.173868 175.017844,197.01856 162.341636,197.01856 Z M239.974907,211.35982 L239.974907,176.810421 C239.974907,169.639791 239.812392,160.839473 242.73767,154.157749 C245.500434,147.964933 250.213383,143.401805 257.364064,143.401805 C268.090087,143.401805 271.340397,149.431653 271.340397,159.372753 L271.340397,211.35982 L291.654833,211.35982 L291.654833,154.809625 C291.654833,137.208988 281.091326,124.497417 263.052107,124.497417 C253.301177,124.497417 243.225217,128.571638 238.187237,137.534926 L236.724597,126.616012 L219.660471,126.616012 L219.660471,211.35982 L239.974907,211.35982 Z M338.980855,212.500602 C344.993928,212.500602 350.68197,211.685757 356.370012,210.219038 L356.370012,193.107307 C350.844486,193.759183 347.43166,193.922151 343.206258,193.922151 C336.705638,193.922151 333.780359,191.151681 333.780359,184.632926 L333.780359,143.401805 L355.069888,143.401805 L355.069888,126.616012 L333.780359,126.616012 L333.780359,100.052088 L313.465923,105.104122 L313.465923,126.616012 L298.026952,126.616012 L298.026952,143.401805 L313.465923,143.401805 L313.465923,186.425584 C313.465923,202.72247 321.916729,212.500602 338.980855,212.500602 Z M391.102974,212.337633 C395.165861,212.337633 395.978439,212.011695 400.041326,211.196851 L400.041326,194.08512 C398.903717,194.08512 398.416171,194.248089 396.628501,194.248089 C389.640335,194.248089 388.502726,190.988712 388.502726,186.099646 L388.502726,93.5333333 L368.025774,93.5333333 L368.025774,189.521992 C368.025774,205.655909 377.289157,212.337633 391.102974,212.337633 Z M424.781475,247.05 C439.570384,247.05 446.55855,236.945931 450.783953,225.864048 L488,126.616012 L467.360533,126.616012 L446.233519,187.892304 L424.131413,126.616012 L401.866791,126.616012 L435.182466,211.196851 L430.307001,223.093577 C428.1943,228.145612 424.293928,229.449363 420.556072,229.449363 C416.005638,229.449363 414.542999,228.960456 409.179988,227.982643 L409.179988,244.931405 C413.567906,246.072187 418.11834,247.05 424.781475,247.05 Z" id="Plantly"></path>
            </g>
        </g>
    </g>
</svg>